HIERARCHY
ROOT hip
{
	OFFSET 0.000000 0.000000 0.000000 
	CHANNELS 6 Xposition Yposition Zposition Xrotation Zrotation Yrotation
	JOINT abdomen
	{
		OFFSET 0.000000 3.402643 0.000000 
		CHANNELS 3 Xrotation Zrotation Yrotation
		JOINT chest
		{
			OFFSET 0.000000 8.438565 -0.680529 
			CHANNELS 3 Xrotation Zrotation Yrotation
			JOINT neck
			{
				OFFSET 0.000000 10.207942 -0.272212 
				CHANNELS 3 Xrotation Zrotation Yrotation
				JOINT head
				{
					OFFSET 0.000000 3.130431 0.000000 
					CHANNELS 3 Xrotation Zrotation Yrotation
					End Site
					{
						OFFSET 0.000000 3.130435 0.000000 
					}
				}
			}
			JOINT lCollar
			{
				OFFSET 3.470700 6.669187 -0.816635 
				CHANNELS 3 Yrotation Zrotation Xrotation
				JOINT lShldr
				{
					OFFSET 3.198488 0.000000 0.000000 
					CHANNELS 3 Zrotation Yrotation Xrotation
					JOINT lForeArm
					{
						OFFSET 10.139888 0.000000 0.000000 
						CHANNELS 3 Yrotation Zrotation Xrotation
						JOINT lHand
						{
							OFFSET 8.370511 0.000000 0.000000 
							CHANNELS 3 Zrotation Yrotation Xrotation
							End Site
							{
								OFFSET 4.083176 0.000000 0.000000 
							}
						}
					}
				}
			}
			JOINT rCollar
			{
				OFFSET -3.470700 6.669187 -0.816635 
				CHANNELS 3 Yrotation Zrotation Xrotation
				JOINT rShldr
				{
					OFFSET -3.198488 0.000000 0.000000 
					CHANNELS 3 Zrotation Yrotation Xrotation
					JOINT rForeArm
					{
						OFFSET -10.139888 0.000000 0.000000 
						CHANNELS 3 Yrotation Zrotation Xrotation
						JOINT rHand
						{
							OFFSET -8.370511 0.000000 0.000000 
							CHANNELS 3 Zrotation Yrotation Xrotation
							End Site
							{
								OFFSET -4.083176 0.000000 0.000000 
							}
						}
					}
				}
			}
		}
	}
	JOINT lThigh
	{
		OFFSET 5.308129 -1.633274 1.361059 
		CHANNELS 3 Xrotation Zrotation Yrotation
		JOINT lShin
		{
			OFFSET -2.041588 -20.007561 0.000000 
			CHANNELS 3 Xrotation Zrotation Yrotation
			JOINT lFoot
			{
				OFFSET 0.000000 -19.190928 -1.224953 
				CHANNELS 3 Xrotation Yrotation Zrotation
				End Site
				{
					OFFSET 0.000000 -2.449906 4.627600 
				}
			}
		}
	}
	JOINT rThigh
	{
		OFFSET -5.308129 -1.633274 1.361059 
		CHANNELS 3 Xrotation Zrotation Yrotation
		JOINT rShin
		{
			OFFSET 2.041588 -20.007561 0.000000 
			CHANNELS 3 Xrotation Zrotation Yrotation
			JOINT rFoot
			{
				OFFSET 0.000000 -19.190928 -1.224953 
				CHANNELS 3 Xrotation Yrotation Zrotation
				End Site
				{
					OFFSET 0.000000 -2.449906 4.627600 
				}
			}
		}
	}
}
MOTION
Frames: 18
Frame Time: 0.033333
2.229220 42.239399 3.363828 -2.340099 -5.375886 -77.645775 0.000000 0.000000 0.000000 12.807315 -8.605206 -21.504677 -25.917425 9.264884 11.847672 12.887952 0.958591 15.773794 -3.521967 9.154817 6.304141 -73.528229 -14.756998 -21.652527 -6.411072 -1.395708 53.817024 11.119889 -3.732358 -9.056920 3.089181 -14.089146 8.026228 89.334801 -5.456559 19.712954 41.954166 -17.381229 -7.007169 3.261681 1.695940 -7.550704 -32.134567 25.619827 14.014317 52.973415 -5.981381 -32.594433 -2.896631 -0.871468 10.293590 17.552586 -30.221254 -29.594664 26.790531 -4.594039 16.350698 -27.680363 4.860656 -16.435890 
2.249338 42.255898 3.309417 -2.165189 -5.414920 -77.716133 0.000000 0.000000 0.000000 13.191401 -8.565145 -20.928055 -26.608803 9.473927 11.606956 13.119044 0.846019 15.724503 -3.521967 9.154817 6.304141 -73.200447 -15.246461 -21.819088 -6.328367 -1.576465 55.255703 9.511254 -3.276773 -8.819306 3.089181 -14.089146 8.026228 91.052757 -4.442680 19.394348 38.422802 -20.455011 -0.892650 6.126562 2.931668 -7.075839 -32.241394 25.736284 13.861792 52.891071 -5.856445 -32.613762 -2.692614 -0.853824 10.063610 17.456879 -29.997303 -29.394871 26.758583 -4.607209 16.347685 -27.641781 4.862041 -16.433979 
2.272051 42.257839 3.268208 -1.995420 -5.454997 -77.883354 0.000000 0.000000 0.000000 13.496566 -8.531230 -20.383228 -27.015102 9.548783 11.371098 13.005665 0.903067 15.578190 -3.521967 9.154817 6.304141 -72.771347 -15.746965 -21.582403 -6.169755 -1.889781 57.452934 10.454471 -3.677317 -8.956123 3.089181 -14.089146 8.026228 91.178917 -4.094990 19.744177 38.254417 -20.427023 -1.661810 5.174117 3.428113 -7.143171 -32.320389 25.913164 13.759094 52.908855 -5.747783 -32.487278 -2.650169 -0.837313 9.963847 17.264091 -29.843740 -29.151325 26.776215 -4.620931 16.345081 -27.413294 4.817903 -16.369104 
2.256795 42.245480 3.265089 -2.146635 -5.597959 -77.700752 0.000000 0.000000 0.000000 14.158594 -8.469812 -20.329227 -27.565353 9.670853 11.157764 13.016887 0.489255 15.537697 -3.521967 9.154817 6.304141 -72.535599 -16.274540 -21.447720 -6.105107 -2.013790 58.288773 10.357491 -4.522945 -8.961051 3.089181 -14.089146 8.026228 91.152023 -3.651769 19.569384 38.502682 -20.124752 -1.646465 5.056936 4.128572 -7.081904 -32.281971 25.689411 13.614001 52.941914 -5.640757 -32.538162 -2.350182 -0.787087 9.681684 17.671001 -29.968185 -29.516409 26.740786 -4.515469 16.464855 -27.521513 4.844801 -16.455252 
2.224003 42.232113 3.250269 -2.176306 -5.608520 -77.716293 0.000000 0.000000 0.000000 14.532493 -8.223663 -20.119226 -28.287550 9.469332 11.160874 13.339394 0.564845 15.420692 -3.521967 9.154817 6.304141 -72.533607 -16.693192 -21.774654 -6.094173 -2.032829 58.971268 9.925100 -5.542910 -8.920101 3.089181 -14.089146 8.026228 91.188904 -3.077017 19.481417 38.582954 -20.012733 -1.139041 5.174310 4.865686 -6.982284 -32.284180 25.633577 13.530679 52.982185 -5.559817 -32.658321 -2.379168 -0.781524 9.632071 17.672092 -29.968946 -29.496374 26.823202 -4.576108 16.354904 -27.716187 4.905307 -16.474548 
2.177626 42.223518 3.232676 -2.179754 -5.422984 -77.633682 0.000000 0.000000 0.000000 14.505450 -8.202248 -19.999210 -28.263275 9.589713 10.995626 13.112365 0.273021 15.410348 -3.521967 9.154817 6.304141 -72.404907 -16.853771 -22.036402 -5.975271 -2.200571 60.140545 9.213961 -6.515784 -8.827232 3.089181 -14.089146 8.026228 91.217995 -3.053353 19.285206 38.648865 -19.845507 -1.336391 4.318012 4.169095 -7.181683 -32.497551 25.534143 13.359960 53.025711 -5.525614 -32.567924 -2.409153 -0.791044 9.681636 17.551304 -29.868486 -29.324387 26.877340 -4.671545 16.041716 -27.989576 4.939984 -16.488049 
2.116980 42.221375 3.229712 -2.369404 -5.158761 -77.343208 0.000000 0.000000 0.000000 14.327801 -8.347877 -20.204889 -28.033171 9.375397 11.098294 12.920952 0.395559 15.332467 -3.521967 9.154817 6.304141 -72.177635 -16.858780 -22.449711 -5.832535 -2.418648 61.015499 8.910981 -7.142221 -8.783870 3.089181 -14.089146 8.026228 91.715462 -2.661834 19.294401 38.040195 -20.258436 -0.993220 5.566051 4.099291 -7.015539 -32.721569 25.250303 13.308887 52.886429 -5.568606 -32.499870 -1.939766 -0.714094 9.164447 17.651697 -29.987764 -29.527006 26.806698 -4.543570 15.884601 -28.142303 4.953754 -16.435764 
2.034573 42.228138 3.181525 -2.495775 -4.925568 -77.209930 0.000000 0.000000 0.000000 14.085934 -8.551094 -20.186026 -27.586576 9.027083 11.196431 12.601382 0.735256 15.147839 -3.521967 9.154817 6.304141 -71.991356 -16.833307 -23.123655 -5.750398 -2.484407 61.427628 8.792596 -7.738762 -8.768149 3.089181 -14.089146 8.026228 92.481613 -2.487415 19.207529 37.107998 -21.008049 -0.057888 5.379540 4.087164 -7.037469 -32.837299 25.219240 13.498947 52.551876 -5.611084 -32.419228 -0.740047 -0.557313 7.804012 17.561440 -29.927479 -29.381691 26.802168 -4.672997 15.643744 -28.032856 4.872508 -16.351450 
1.919874 42.221748 3.102866 -2.520070 -4.671698 -76.877014 0.000000 0.000000 0.000000 13.946757 -8.499952 -20.282448 -27.515759 8.360678 11.363445 12.436075 1.161238 14.817672 -3.521967 9.154817 6.304141 -71.857018 -16.813988 -24.075722 -5.651480 -2.561991 62.191120 9.018817 -7.782448 -8.808970 3.089181 -14.089146 8.026228 92.857117 -2.704573 18.286982 37.290882 -20.753117 0.509456 5.598734 4.239234 -6.988563 -33.024483 25.182175 13.437500 52.452175 -5.680481 -32.335541 -0.700213 -0.538056 7.883842 17.518585 -29.599884 -29.005768 26.903004 -4.899133 15.020816 -28.432394 4.935619 -16.289988 
1.777378 42.201694 3.018450 -2.830610 -4.370045 -76.282372 0.000000 0.000000 0.000000 13.656376 -8.812525 -20.764923 -26.929876 8.139358 11.396461 11.913589 1.190255 14.690753 -3.521967 9.154817 6.304141 -71.750221 -16.539932 -24.994810 -5.638064 -2.463340 62.256329 10.101534 -7.218719 -8.990340 3.089181 -14.089146 8.026228 92.941345 -3.258997 17.747139 38.122158 -20.028709 -0.064424 5.639305 3.989833 -7.012720 -33.217442 24.779137 13.266076 52.405872 -5.688944 -32.632729 -0.673271 -0.557409 7.875838 17.779072 -29.606813 -29.247143 27.105665 -4.888262 14.438067 -28.828026 5.013345 -16.264206 
1.615156 42.207825 2.895855 -3.081975 -4.356419 -76.052437 0.000000 0.000000 0.000000 13.668180 -9.074400 -20.829796 -26.676153 7.850273 11.457306 11.779044 1.285519 14.554707 -3.521967 9.154817 6.304141 -71.592072 -16.400970 -25.739992 -5.701988 -2.271988 61.795155 9.516403 -7.901365 -8.904308 3.089181 -14.089146 8.026228 93.366196 -3.710587 17.469351 38.323425 -20.008610 0.771507 5.700200 4.221231 -6.974802 -32.994228 24.731880 13.325323 52.234936 -5.740212 -32.714451 -0.398769 -0.513431 7.667249 18.129662 -29.499689 -29.317717 27.173105 -4.926892 14.039985 -29.187778 5.047114 -16.289707 
1.445934 42.207993 2.760595 -3.190791 -4.172987 -75.671471 0.000000 0.000000 0.000000 13.458026 -9.351881 -21.085760 -26.532301 7.735154 11.464315 11.825647 1.399562 14.457547 -3.521967 9.154817 6.304141 -71.263321 -16.171381 -26.005638 -5.684270 -2.313057 62.339962 9.410774 -8.158102 -8.884689 3.089181 -14.089146 8.026228 93.665009 -4.090713 17.489874 38.248196 -19.984816 0.246386 5.925860 4.402952 -6.921374 -33.040867 24.592728 13.155138 52.080791 -5.661007 -32.722080 -0.548079 -0.531687 7.621488 18.490391 -29.303591 -29.537123 27.080902 -4.759025 13.609916 -29.572493 5.131076 -16.269342 
1.283832 42.202854 2.604825 -3.126239 -4.046625 -75.666000 0.000000 0.000000 0.000000 13.432224 -9.517292 -20.927135 -26.512268 7.661213 11.363638 11.578644 1.400297 14.340395 -3.521967 9.154817 6.304141 -70.956062 -16.138008 -25.920345 -5.649174 -2.345444 61.950478 9.615095 -8.323460 -8.932561 3.089181 -14.089146 8.026228 93.974556 -4.242582 17.415262 37.912479 -20.129171 0.347764 5.873303 4.505220 -6.922857 -32.992523 24.759275 13.056379 51.984913 -5.511409 -32.923523 -0.941586 -0.558026 7.671777 18.458958 -29.106964 -29.449276 27.286366 -4.710366 13.658241 -29.793571 5.149637 -16.305248 
1.146607 42.226635 2.472529 -3.206528 -3.879655 -75.843773 0.000000 0.000000 0.000000 13.279891 -9.852641 -20.551085 -26.610142 7.491674 11.250728 11.696777 1.543751 14.116624 -3.521967 9.154817 6.304141 -70.752052 -16.168148 -26.014675 -5.665873 -2.367014 62.484386 9.263955 -8.250660 -8.863855 3.089181 -14.089146 8.026228 94.525421 -4.029770 17.335123 36.685516 -20.915216 0.640467 5.760347 4.697957 -6.919275 -32.913765 24.719503 12.904108 51.778538 -5.426333 -32.164200 -1.086969 -0.563739 7.861125 18.352987 -29.088474 -29.330488 27.317371 -4.759921 13.919651 -29.867577 5.175811 -16.345171 
0.993504 42.248215 2.338092 -3.161849 -3.791417 -76.266228 0.000000 0.000000 0.000000 13.237185 -10.076303 -19.920414 -26.897415 7.273093 11.175407 11.832295 1.602005 13.911899 -3.521967 9.154817 6.304141 -70.488358 -16.263412 -25.868250 -5.534616 -2.582692 62.842358 8.851642 -8.615639 -8.786123 3.089181 -14.089146 8.026228 94.603104 -3.954480 17.200424 36.347343 -21.030497 0.135027 5.660496 4.540226 -6.952754 -32.837936 24.907667 12.786781 51.829353 -5.249669 -31.522924 -1.319787 -0.579056 7.943923 18.094769 -28.974119 -29.042084 27.315456 -4.876129 13.942408 -29.863062 5.161949 -16.297340 
0.807447 42.255413 2.212466 -3.195958 -3.674577 -76.285316 0.000000 0.000000 0.000000 13.116199 -10.216058 -19.751190 -26.911358 7.044573 11.111183 11.840730 1.660271 13.716952 -3.521967 9.154817 6.304141 -70.422173 -16.230944 -25.782984 -5.516725 -2.646759 63.142353 8.496179 -8.869486 -8.729111 3.089181 -14.089146 8.026228 94.680511 -3.952517 17.451977 36.054039 -21.302603 0.399257 5.604208 4.845325 -6.914252 -32.849995 24.861536 12.544626 51.817368 -5.004365 -31.199255 -1.251843 -0.563441 7.686486 18.221848 -28.847639 -29.107004 27.302235 -4.810662 13.812000 -29.922792 5.184998 -16.291946 
0.617315 42.227512 2.097986 -3.207979 -3.393844 -76.385727 0.000000 0.000000 0.000000 12.698532 -10.287870 -19.636114 -26.787344 6.802038 11.232451 11.905506 1.898156 13.630955 -3.521967 9.154817 6.304141 -70.470833 -16.025797 -25.684872 -5.490942 -2.698901 63.228764 8.184407 -8.857792 -8.673799 3.089181 -14.089146 8.026228 94.181717 -4.235160 17.717943 36.883762 -20.685892 -0.308132 5.865808 4.729160 -6.898603 -33.033287 24.917585 12.344029 51.965637 -4.869152 -30.949766 -1.343986 -0.570625 7.633191 18.040094 -28.726038 -28.888132 27.410547 -4.909186 13.633410 -30.207615 5.193070 -16.277889 
0.422297 42.205925 1.977492 -3.362416 -3.263511 -76.585541 0.000000 0.000000 0.000000 12.553241 -10.564117 -19.504747 -26.880428 6.607774 11.346516 12.170911 2.240553 13.555751 -3.521967 9.154817 6.304141 -70.359070 -15.911839 -25.790287 -5.506355 -2.690131 63.364872 7.800168 -9.135785 -8.599450 3.089181 -14.089146 8.026228 94.205643 -4.187350 17.877289 37.161633 -20.522308 -0.155552 6.009854 4.773592 -6.863800 -32.967857 24.989265 12.339827 52.090237 -4.809415 -30.760635 -1.545801 -0.561361 7.598923 18.044535 -28.778353 -28.921104 27.450840 -4.973212 13.570436 -30.198803 5.224742 -16.277624 
